# xmcd
#
# Track frame offsets: 
#        150
#        16887
#        38171
#        63855
#        81567
#        101000
#        120397
#        154162
#        171281
#        192647
#        210399
#        229376
#        249217
#
# Disc length: 3498 seconds
#
# Revision: 0
# Processed by: cddbd v1.5.2PL0 Copyright (c) Steve Scherf et al.
# Submitted via: ExactAudioCopy v0.99pb3
#
DISCID=a90da80d
DTITLE=Al Basile - The Tinge
DYEAR=2008
DGENRE=Blues
TTITLE0=Go Back Home To The Blues
TTITLE1=Just Wait And See
TTITLE2=Airlift My Heart
TTITLE3=Not The Wrong Woman
TTITLE4=Can I Trust You With A Kiss?
TTITLE5=Give Me The Rainbow
TTITLE6=Too Slow
TTITLE7=While We're Dancing
TTITLE8=Daddy Got A Problem
TTITLE9=She's In Love With Losing
TTITLE10=You're Still Right
TTITLE11=Losing My Cool
TTITLE12=Strawberries And Cream
EXTD=
EXTT0=
EXTT1=
EXTT2=
EXTT3=
EXTT4=
EXTT5=
EXTT6=
EXTT7=
EXTT8=
EXTT9=
EXTT10=
EXTT11=
EXTT12=
PLAYORDER=
